<?xml version="1.0" encoding="UTF-8" standalone="no"?>
<!-- Created with Inkscape (http://www.inkscape.org/) -->

<svg
   width="399.81436"
   height="523.39166"
   viewBox="0 0 105.78421 138.48071"
   version="1.1"
   id="svg5"
   xml:space="preserve"
   inkscape:version="1.2.2 (b0a8486541, 2022-12-01)"
   sodipodi:docname="loading.svg"
   xmlns:inkscape="http://www.inkscape.org/namespaces/inkscape"
   xmlns:sodipodi="http://sodipodi.sourceforge.net/DTD/sodipodi-0.dtd"
   xmlns="http://www.w3.org/2000/svg"
   xmlns:svg="http://www.w3.org/2000/svg"><sodipodi:namedview
     id="namedview7"
     pagecolor="#505050"
     bordercolor="#ffffff"
     borderopacity="1"
     inkscape:showpageshadow="0"
     inkscape:pageopacity="0"
     inkscape:pagecheckerboard="1"
     inkscape:deskcolor="#505050"
     inkscape:document-units="mm"
     showgrid="false"
     inkscape:zoom="0.50000001"
     inkscape:cx="341.99999"
     inkscape:cy="182"
     inkscape:window-width="1680"
     inkscape:window-height="1021"
     inkscape:window-x="1680"
     inkscape:window-y="0"
     inkscape:window-maximized="1"
     inkscape:current-layer="layer2" /><defs
     id="defs2"><inkscape:path-effect
       effect="spiro"
       id="path-effect400"
       is_visible="true"
       lpeversion="1" /><inkscape:path-effect
       effect="spiro"
       id="path-effect396"
       is_visible="true"
       lpeversion="1" /><inkscape:path-effect
       effect="spiro"
       id="path-effect392"
       is_visible="true"
       lpeversion="1" /><inkscape:path-effect
       effect="spiro"
       id="path-effect376"
       is_visible="true"
       lpeversion="1" /><inkscape:path-effect
       effect="spiro"
       id="path-effect372"
       is_visible="true"
       lpeversion="1" /><inkscape:path-effect
       effect="spiro"
       id="path-effect368"
       is_visible="true"
       lpeversion="1" /><inkscape:path-effect
       effect="spiro"
       id="path-effect352"
       is_visible="true"
       lpeversion="1" /><inkscape:path-effect
       effect="spiro"
       id="path-effect348"
       is_visible="true"
       lpeversion="1" /><inkscape:path-effect
       effect="spiro"
       id="path-effect344"
       is_visible="true"
       lpeversion="1" /><inkscape:path-effect
       effect="spiro"
       id="path-effect328"
       is_visible="true"
       lpeversion="1" /><inkscape:path-effect
       effect="spiro"
       id="path-effect324"
       is_visible="true"
       lpeversion="1" /><inkscape:path-effect
       effect="spiro"
       id="path-effect320"
       is_visible="true"
       lpeversion="1" /><inkscape:path-effect
       effect="spiro"
       id="path-effect304"
       is_visible="true"
       lpeversion="1" /><inkscape:path-effect
       effect="spiro"
       id="path-effect300"
       is_visible="true"
       lpeversion="1" /><inkscape:path-effect
       effect="spiro"
       id="path-effect296"
       is_visible="true"
       lpeversion="1" /><inkscape:path-effect
       effect="spiro"
       id="path-effect280"
       is_visible="true"
       lpeversion="1" /><inkscape:path-effect
       effect="spiro"
       id="path-effect276"
       is_visible="true"
       lpeversion="1" /><inkscape:path-effect
       effect="spiro"
       id="path-effect272"
       is_visible="true"
       lpeversion="1" /><inkscape:path-effect
       effect="spiro"
       id="path-effect256"
       is_visible="true"
       lpeversion="1" /><inkscape:path-effect
       effect="spiro"
       id="path-effect252"
       is_visible="true"
       lpeversion="1" /><inkscape:path-effect
       effect="spiro"
       id="path-effect248"
       is_visible="true"
       lpeversion="1" /><inkscape:path-effect
       effect="spiro"
       id="path-effect4319"
       is_visible="true"
       lpeversion="1" /><inkscape:path-effect
       effect="spiro"
       id="path-effect4315"
       is_visible="true"
       lpeversion="1" /><inkscape:path-effect
       effect="spiro"
       id="path-effect4311"
       is_visible="true"
       lpeversion="1" /><inkscape:path-effect
       effect="spiro"
       id="path-effect4307"
       is_visible="true"
       lpeversion="1" /><inkscape:path-effect
       effect="spiro"
       id="path-effect4295"
       is_visible="true"
       lpeversion="1" /><inkscape:path-effect
       effect="spiro"
       id="path-effect4289"
       is_visible="true"
       lpeversion="1" /><inkscape:path-effect
       effect="spiro"
       id="path-effect2831"
       is_visible="true"
       lpeversion="1" /><inkscape:path-effect
       effect="spiro"
       id="path-effect2825"
       is_visible="true"
       lpeversion="1" /><inkscape:path-effect
       effect="spiro"
       id="path-effect2703"
       is_visible="true"
       lpeversion="1" /><inkscape:path-effect
       effect="spiro"
       id="path-effect2688"
       is_visible="true"
       lpeversion="1" /><inkscape:path-effect
       effect="spiro"
       id="path-effect2631"
       is_visible="true"
       lpeversion="1" /><inkscape:path-effect
       effect="spiro"
       id="path-effect2613"
       is_visible="true"
       lpeversion="1" /><inkscape:path-effect
       effect="spiro"
       id="path-effect2607"
       is_visible="true"
       lpeversion="1" /><inkscape:path-effect
       effect="spiro"
       id="path-effect2513"
       is_visible="true"
       lpeversion="1" /><inkscape:path-effect
       effect="spiro"
       id="path-effect241"
       is_visible="true"
       lpeversion="1" /><inkscape:path-effect
       effect="spiro"
       id="path-effect235"
       is_visible="true"
       lpeversion="1" /></defs><g
     inkscape:groupmode="layer"
     id="layer2"
     inkscape:label="8"
     style="display:inline"
     transform="translate(237.09469,5.2842542)"><path
       style="display:inline;fill:#000000;stroke:none;stroke-width:5.66499;stroke-linecap:round;stroke-linejoin:round;paint-order:markers fill stroke"
       d="m 98.492696,72.235384 c -0.45905,7.6e-5 -0.918645,0.0063 -1.377694,0.0186 -13.988375,0.374538 -27.813364,6.468311 -37.240104,16.806726 -9.426269,10.337901 -14.232905,24.8434 -12.462805,38.71857 0.03627,0.28426 0.07057,0.56841 0.09767,0.85525 l 5.179528,54.83386 a 0.1322915,0.1322915 0 0 1 0,0.004 0.1322915,0.1322915 0 0 1 0.0062,0.006 c 0.332661,6.38447 3.343538,12.593 8.151957,16.80621 4.802566,4.20808 11.083537,6.33607 17.328141,7.78919 13.527249,3.14779 27.727121,3.56358 41.338051,0.81287 2.12141,-0.42873 4.22838,-0.93298 6.29677,-1.56269 9.1774,-2.79399 17.57318,-8.10722 24.03522,-15.19753 l 2.98845,-64.08549 a 0.1322915,0.1322915 0 0 1 -0.0413,-0.0434 C 153.20385,113.3088 147.33377,98.543657 136.94926,88.146558 126.88927,78.074369 112.72325,72.233045 98.492696,72.235384 Z"
       id="path2581"
       transform="translate(-47.049862,-72.235383)" /><path
       style="fill:#ffffff;stroke:none;stroke-width:0.264583px;stroke-linecap:butt;stroke-linejoin:miter;stroke-opacity:1"
       d="m 99.627292,98.177394 c 9.144128,-0.503898 18.436268,2.889296 25.114808,9.155556 6.67854,6.26626 10.65497,15.31676 10.76892,24.47405 0.09,7.23318 -2.18857,14.47845 -6.41216,20.35112 -4.22359,5.87267 -10.37095,10.33986 -17.26457,12.53188 -7.78434,2.47525 -16.46456,2.00534 -23.94174,-1.28323 -7.477179,-3.28856 -13.687001,-9.36434 -17.150402,-16.76216 -4.699636,-10.03842 -4.099177,-22.38806 1.569599,-31.91283 5.668775,-9.52478 16.248275,-15.944511 27.315545,-16.554386 z"
       id="path2511"
       inkscape:original-d="M 99.627292,98.177394 C 109.25541,82.021388 123.55004,120.59739 135.51102,131.807 147.472,143.0166 119.7268,153.72926 111.83429,164.69 103.94178,175.65073 84.439793,152.66001 70.742148,146.64461 57.044505,140.62922 89.999173,114.3334 99.627292,98.177394 Z"
       inkscape:path-effect="#path-effect2513"
       transform="translate(-47.049862,-72.235383)" /><path
       style="fill:#000000;stroke:none;stroke-width:0.161988px;stroke-linecap:butt;stroke-linejoin:miter;stroke-opacity:1"
       d="m 100.29042,111.3469 c 5.59965,-0.31307 11.29341,1.75302 15.39015,5.58326 4.09675,3.83024 6.54047,9.37179 6.60719,14.97979 0.0527,4.4263 -1.35002,8.85816 -3.94064,12.44753 -2.59063,3.58937 -6.35537,6.31679 -10.57359,7.65899 -4.77008,1.5178 -10.088811,1.23803 -14.673803,-0.77075 -4.584991,-2.00878 -8.396107,-5.72871 -10.516376,-10.26322 -2.871985,-6.14217 -2.490648,-13.69793 0.986643,-19.51884 3.477291,-5.8209 9.950548,-9.73827 16.720426,-10.11676 z"
       id="path2603"
       inkscape:original-d="m 100.29042,111.3469 c 5.90221,-9.87871 14.66507,13.70884 21.99734,20.56305 7.33229,6.85419 -9.67599,13.4045 -14.51423,20.10652 -4.83825,6.70201 -16.79329,-7.35581 -25.190179,-11.03397 -8.396887,-3.67815 11.804882,-19.7569 17.707069,-29.6356 z"
       inkscape:path-effect="#path-effect2607"
       transform="translate(-47.049862,-72.235383)" /><path
       style="fill:#ffffff;stroke:none;stroke-width:0.0324379px;stroke-linecap:butt;stroke-linejoin:miter;stroke-opacity:1"
       d="m 101.31859,128.02355 c 1.12107,-0.0618 2.26029,0.35423 3.07909,1.12247 0.81879,0.76825 1.3063,1.87784 1.32027,3.00053 0.011,0.88679 -0.26832,1.77506 -0.78613,2.49505 -0.51781,0.71999 -1.27148,1.26767 -2.11664,1.53641 -0.95436,0.30347 -2.01856,0.24586 -2.93526,-0.15732 -0.916704,-0.40318 -1.67803,-1.14807 -2.102645,-2.05504 -0.576179,-1.23071 -0.502566,-2.74478 0.192425,-3.91252 0.694991,-1.16774 1.99204,-1.95481 3.34889,-2.02958 z"
       id="path2609"
       inkscape:original-d="m 101.31859,128.02355 c 1.18044,-1.98071 2.93295,2.74872 4.39936,4.123 1.46645,1.37429 -1.93515,2.68767 -2.90277,4.03146 -0.96763,1.34377 -3.358561,-1.47487 -5.037905,-2.21236 -1.679314,-0.73751 2.360925,-3.96138 3.541315,-5.9421 z"
       inkscape:path-effect="#path-effect2613"
       transform="translate(-47.049862,-72.235383)" /><path
       id="path2712"
       style="display:inline;fill:#ffffff;stroke:none;stroke-width:5.66499;stroke-linecap:round;stroke-linejoin:round;paint-order:markers fill stroke"
       d="m 65.314381,83.942679 c -0.427989,0.400374 -0.863102,0.652793 -1.277441,1.067635 -0.18253,0.182756 -0.655868,0.553541 -0.835608,0.738973 -1.129989,6.420656 -2.139486,15.845963 -2.760555,22.335583 -0.741219,7.74503 -1.118456,15.53508 -0.966866,23.32416 0.16051,8.24751 0.9107,16.44749 1.48053,24.63106 0.232849,3.34408 0.438125,6.74374 1.153934,10.09757 1.008599,4.72573 3.044735,9.27069 6.148462,13.01161 3.541997,4.26917 8.266552,7.29031 13.021428,9.91206 5.284134,2.91359 10.994687,5.53559 17.152441,5.96294 0.616579,0.0428 1.243215,0.0619 1.858284,0.061 0.61507,9.4e-4 1.23085,-0.0182 1.84743,-0.061 6.15776,-0.42735 11.86831,-3.04935 17.15244,-5.96294 4.75488,-2.62175 9.47944,-5.64289 13.02143,-9.91206 3.10373,-3.74092 5.13986,-8.28588 6.14846,-13.01161 0.71581,-3.35383 0.92109,-6.75349 1.15394,-10.09757 0.56983,-8.18357 1.32002,-16.38355 1.48053,-24.63106 0.15159,-7.78908 -0.22565,-15.57913 -0.96687,-23.32416 -0.62107,-6.48962 -1.49982,-12.954901 -2.62981,-19.375557 -0.17974,-0.185432 -0.35749,-0.372766 -0.54002,-0.555522 -0.41434,-0.414841 -0.8386,-0.819706 -1.26659,-1.22008 1.30149,7.049167 2.2947,14.156029 2.9776,21.291719 0.73683,7.69923 1.11148,15.43135 0.96118,23.15415 -0.15915,8.17739 -0.90768,16.35392 -1.47898,24.5587 -0.23344,3.35249 -0.43759,6.68133 -1.12293,9.89242 -0.96451,4.51911 -2.91342,8.84904 -5.84564,12.38323 -3.34929,4.0369 -7.90346,6.97689 -12.59975,9.56634 -5.21737,2.87679 -10.74121,5.3802 -16.54679,5.78311 -0.58144,0.0404 -1.16335,0.0579 -1.74563,0.0568 -0.582279,0.001 -1.175042,-0.0164 -1.756481,-0.0568 -5.805585,-0.40291 -11.329419,-2.90632 -16.546794,-5.78311 -4.696285,-2.58945 -9.250451,-5.52944 -12.599748,-9.56634 -2.932217,-3.53419 -4.881129,-7.86412 -5.845638,-12.38323 -0.685339,-3.21109 -0.889489,-6.53993 -1.122929,-9.89242 -0.571299,-8.20478 -1.319829,-16.38131 -1.478979,-24.5587 -0.1503,-7.7228 0.224352,-15.45492 0.961182,-23.15415 0.682899,-7.13569 2.977596,-21.291719 2.977596,-21.291719 z"
       transform="translate(-47.049862,-72.235383)" /><path
       style="display:inline;fill:none;stroke:#ffffff;stroke-width:2.765;stroke-linecap:round;stroke-linejoin:miter;stroke-dasharray:none;stroke-opacity:1"
       d="m 88.030624,118.72738 9.183939,9.18394"
       id="path4303"
       inkscape:path-effect="#path-effect4319"
       inkscape:original-d="m 88.030624,118.72738 c 3.061681,3.06133 6.122994,6.12264 9.183939,9.18394"
       inkscape:transform-center-y="-8.8560682"
       inkscape:transform-center-x="8.8560494"
       inkscape:label="8"
       transform="translate(-47.049862,-72.235383)" /></g><g
     inkscape:groupmode="layer"
     id="g244"
     inkscape:label="7"
     style="display:inline"
     transform="translate(114.17055,3.6864835)"><path
       style="display:inline;fill:#000000;stroke:none;stroke-width:5.66499;stroke-linecap:round;stroke-linejoin:round;paint-order:markers fill stroke"
       d="m 98.492696,72.235384 c -0.45905,7.6e-5 -0.918645,0.0063 -1.377694,0.0186 -13.988375,0.374538 -27.813364,6.468311 -37.240104,16.806726 -9.426269,10.337901 -14.232905,24.8434 -12.462805,38.71857 0.03627,0.28426 0.07057,0.56841 0.09767,0.85525 l 5.179528,54.83386 a 0.1322915,0.1322915 0 0 1 0,0.004 0.1322915,0.1322915 0 0 1 0.0062,0.006 c 0.332661,6.38447 3.343538,12.593 8.151957,16.80621 4.802566,4.20808 11.083537,6.33607 17.328141,7.78919 13.527249,3.14779 27.727121,3.56358 41.338051,0.81287 2.12141,-0.42873 4.22838,-0.93298 6.29677,-1.56269 9.1774,-2.79399 17.57318,-8.10722 24.03522,-15.19753 l 2.98845,-64.08549 a 0.1322915,0.1322915 0 0 1 -0.0413,-0.0434 C 153.20385,113.3088 147.33377,98.543657 136.94926,88.146558 126.88927,78.074369 112.72325,72.233045 98.492696,72.235384 Z"
       id="path234"
       transform="translate(-47.049862,-72.235383)" /><path
       style="fill:#ffffff;stroke:none;stroke-width:0.264583px;stroke-linecap:butt;stroke-linejoin:miter;stroke-opacity:1"
       d="m 99.627292,98.177394 c 9.144128,-0.503898 18.436268,2.889296 25.114808,9.155556 6.67854,6.26626 10.65497,15.31676 10.76892,24.47405 0.09,7.23318 -2.18857,14.47845 -6.41216,20.35112 -4.22359,5.87267 -10.37095,10.33986 -17.26457,12.53188 -7.78434,2.47525 -16.46456,2.00534 -23.94174,-1.28323 -7.477179,-3.28856 -13.687001,-9.36434 -17.150402,-16.76216 -4.699636,-10.03842 -4.099177,-22.38806 1.569599,-31.91283 5.668775,-9.52478 16.248275,-15.944511 27.315545,-16.554386 z"
       id="path236"
       inkscape:original-d="M 99.627292,98.177394 C 109.25541,82.021388 123.55004,120.59739 135.51102,131.807 147.472,143.0166 119.7268,153.72926 111.83429,164.69 103.94178,175.65073 84.439793,152.66001 70.742148,146.64461 57.044505,140.62922 89.999173,114.3334 99.627292,98.177394 Z"
       inkscape:path-effect="#path-effect248"
       transform="translate(-47.049862,-72.235383)" /><path
       style="fill:#000000;stroke:none;stroke-width:0.161988px;stroke-linecap:butt;stroke-linejoin:miter;stroke-opacity:1"
       d="m 100.29042,111.3469 c 5.59965,-0.31307 11.29341,1.75302 15.39015,5.58326 4.09675,3.83024 6.54047,9.37179 6.60719,14.97979 0.0527,4.4263 -1.35002,8.85816 -3.94064,12.44753 -2.59063,3.58937 -6.35537,6.31679 -10.57359,7.65899 -4.77008,1.5178 -10.088811,1.23803 -14.673803,-0.77075 -4.584991,-2.00878 -8.396107,-5.72871 -10.516376,-10.26322 -2.871985,-6.14217 -2.490648,-13.69793 0.986643,-19.51884 3.477291,-5.8209 9.950548,-9.73827 16.720426,-10.11676 z"
       id="path238"
       inkscape:original-d="m 100.29042,111.3469 c 5.90221,-9.87871 14.66507,13.70884 21.99734,20.56305 7.33229,6.85419 -9.67599,13.4045 -14.51423,20.10652 -4.83825,6.70201 -16.79329,-7.35581 -25.190179,-11.03397 -8.396887,-3.67815 11.804882,-19.7569 17.707069,-29.6356 z"
       inkscape:path-effect="#path-effect252"
       transform="translate(-47.049862,-72.235383)" /><path
       style="fill:#ffffff;stroke:none;stroke-width:0.0324379px;stroke-linecap:butt;stroke-linejoin:miter;stroke-opacity:1"
       d="m 101.31859,128.02355 c 1.12107,-0.0618 2.26029,0.35423 3.07909,1.12247 0.81879,0.76825 1.3063,1.87784 1.32027,3.00053 0.011,0.88679 -0.26832,1.77506 -0.78613,2.49505 -0.51781,0.71999 -1.27148,1.26767 -2.11664,1.53641 -0.95436,0.30347 -2.01856,0.24586 -2.93526,-0.15732 -0.916704,-0.40318 -1.67803,-1.14807 -2.102645,-2.05504 -0.576179,-1.23071 -0.502566,-2.74478 0.192425,-3.91252 0.694991,-1.16774 1.99204,-1.95481 3.34889,-2.02958 z"
       id="path240"
       inkscape:original-d="m 101.31859,128.02355 c 1.18044,-1.98071 2.93295,2.74872 4.39936,4.123 1.46645,1.37429 -1.93515,2.68767 -2.90277,4.03146 -0.96763,1.34377 -3.358561,-1.47487 -5.037905,-2.21236 -1.679314,-0.73751 2.360925,-3.96138 3.541315,-5.9421 z"
       inkscape:path-effect="#path-effect256"
       transform="translate(-47.049862,-72.235383)" /><path
       id="path242"
       style="display:inline;fill:#ffffff;stroke:none;stroke-width:5.66499;stroke-linecap:round;stroke-linejoin:round;paint-order:markers fill stroke"
       d="m 65.314381,83.942679 c -0.427989,0.400374 -0.863102,0.652793 -1.277441,1.067635 -0.18253,0.182756 -0.655868,0.553541 -0.835608,0.738973 -1.129989,6.420656 -2.139486,15.845963 -2.760555,22.335583 -0.741219,7.74503 -1.118456,15.53508 -0.966866,23.32416 0.16051,8.24751 0.9107,16.44749 1.48053,24.63106 0.232849,3.34408 0.438125,6.74374 1.153934,10.09757 1.008599,4.72573 3.044735,9.27069 6.148462,13.01161 3.541997,4.26917 8.266552,7.29031 13.021428,9.91206 5.284134,2.91359 10.994687,5.53559 17.152441,5.96294 0.616579,0.0428 1.243215,0.0619 1.858284,0.061 0.61507,9.4e-4 1.23085,-0.0182 1.84743,-0.061 6.15776,-0.42735 11.86831,-3.04935 17.15244,-5.96294 4.75488,-2.62175 9.47944,-5.64289 13.02143,-9.91206 3.10373,-3.74092 5.13986,-8.28588 6.14846,-13.01161 0.71581,-3.35383 0.92109,-6.75349 1.15394,-10.09757 0.56983,-8.18357 1.32002,-16.38355 1.48053,-24.63106 0.15159,-7.78908 -0.22565,-15.57913 -0.96687,-23.32416 -0.62107,-6.48962 -1.49982,-12.954901 -2.62981,-19.375557 -0.17974,-0.185432 -0.35749,-0.372766 -0.54002,-0.555522 -0.41434,-0.414841 -0.8386,-0.819706 -1.26659,-1.22008 1.30149,7.049167 2.2947,14.156029 2.9776,21.291719 0.73683,7.69923 1.11148,15.43135 0.96118,23.15415 -0.15915,8.17739 -0.90768,16.35392 -1.47898,24.5587 -0.23344,3.35249 -0.43759,6.68133 -1.12293,9.89242 -0.96451,4.51911 -2.91342,8.84904 -5.84564,12.38323 -3.34929,4.0369 -7.90346,6.97689 -12.59975,9.56634 -5.21737,2.87679 -10.74121,5.3802 -16.54679,5.78311 -0.58144,0.0404 -1.16335,0.0579 -1.74563,0.0568 -0.582279,0.001 -1.175042,-0.0164 -1.756481,-0.0568 -5.805585,-0.40291 -11.329419,-2.90632 -16.546794,-5.78311 -4.696285,-2.58945 -9.250451,-5.52944 -12.599748,-9.56634 -2.932217,-3.53419 -4.881129,-7.86412 -5.845638,-12.38323 -0.685339,-3.21109 -0.889489,-6.53993 -1.122929,-9.89242 -0.571299,-8.20478 -1.319829,-16.38131 -1.478979,-24.5587 -0.1503,-7.7228 0.224352,-15.45492 0.961182,-23.15415 0.682899,-7.13569 2.977596,-21.291719 2.977596,-21.291719 z"
       transform="translate(-47.049862,-72.235383)" /><path
       style="display:inline;fill:none;stroke:#ffffff;stroke-width:2.765;stroke-linecap:round;stroke-linejoin:miter;stroke-dasharray:none;stroke-opacity:1"
       d="m 82.460255,132.1754 h 12.98805"
       id="path4291"
       inkscape:path-effect="#path-effect4295"
       inkscape:original-d="m 82.460255,132.1754 c 4.32962,-2.5e-4 8.65897,-2.5e-4 12.98805,0"
       inkscape:transform-center-y="-1.4932205e-05"
       inkscape:transform-center-x="12.52436"
       inkscape:label="7"
       transform="translate(-47.049862,-72.235383)" /></g><g
     inkscape:groupmode="layer"
     id="g268"
     inkscape:label="6"
     style="display:inline"
     transform="translate(-13.231233,9.3447782)"><path
       style="display:inline;fill:#000000;stroke:none;stroke-width:5.66499;stroke-linecap:round;stroke-linejoin:round;paint-order:markers fill stroke"
       d="m 98.492696,72.235384 c -0.45905,7.6e-5 -0.918645,0.0063 -1.377694,0.0186 -13.988375,0.374538 -27.813364,6.468311 -37.240104,16.806726 -9.426269,10.337901 -14.232905,24.8434 -12.462805,38.71857 0.03627,0.28426 0.07057,0.56841 0.09767,0.85525 l 5.179528,54.83386 a 0.1322915,0.1322915 0 0 1 0,0.004 0.1322915,0.1322915 0 0 1 0.0062,0.006 c 0.332661,6.38447 3.343538,12.593 8.151957,16.80621 4.802566,4.20808 11.083537,6.33607 17.328141,7.78919 13.527249,3.14779 27.727121,3.56358 41.338051,0.81287 2.12141,-0.42873 4.22838,-0.93298 6.29677,-1.56269 9.1774,-2.79399 17.57318,-8.10722 24.03522,-15.19753 l 2.98845,-64.08549 a 0.1322915,0.1322915 0 0 1 -0.0413,-0.0434 C 153.20385,113.3088 147.33377,98.543657 136.94926,88.146558 126.88927,78.074369 112.72325,72.233045 98.492696,72.235384 Z"
       id="path258"
       transform="translate(-47.049862,-72.235383)" /><path
       style="fill:#ffffff;stroke:none;stroke-width:0.264583px;stroke-linecap:butt;stroke-linejoin:miter;stroke-opacity:1"
       d="m 99.627292,98.177394 c 9.144128,-0.503898 18.436268,2.889296 25.114808,9.155556 6.67854,6.26626 10.65497,15.31676 10.76892,24.47405 0.09,7.23318 -2.18857,14.47845 -6.41216,20.35112 -4.22359,5.87267 -10.37095,10.33986 -17.26457,12.53188 -7.78434,2.47525 -16.46456,2.00534 -23.94174,-1.28323 -7.477179,-3.28856 -13.687001,-9.36434 -17.150402,-16.76216 -4.699636,-10.03842 -4.099177,-22.38806 1.569599,-31.91283 5.668775,-9.52478 16.248275,-15.944511 27.315545,-16.554386 z"
       id="path260"
       inkscape:original-d="M 99.627292,98.177394 C 109.25541,82.021388 123.55004,120.59739 135.51102,131.807 147.472,143.0166 119.7268,153.72926 111.83429,164.69 103.94178,175.65073 84.439793,152.66001 70.742148,146.64461 57.044505,140.62922 89.999173,114.3334 99.627292,98.177394 Z"
       inkscape:path-effect="#path-effect272"
       transform="translate(-47.049862,-72.235383)" /><path
       style="fill:#000000;stroke:none;stroke-width:0.161988px;stroke-linecap:butt;stroke-linejoin:miter;stroke-opacity:1"
       d="m 100.29042,111.3469 c 5.59965,-0.31307 11.29341,1.75302 15.39015,5.58326 4.09675,3.83024 6.54047,9.37179 6.60719,14.97979 0.0527,4.4263 -1.35002,8.85816 -3.94064,12.44753 -2.59063,3.58937 -6.35537,6.31679 -10.57359,7.65899 -4.77008,1.5178 -10.088811,1.23803 -14.673803,-0.77075 -4.584991,-2.00878 -8.396107,-5.72871 -10.516376,-10.26322 -2.871985,-6.14217 -2.490648,-13.69793 0.986643,-19.51884 3.477291,-5.8209 9.950548,-9.73827 16.720426,-10.11676 z"
       id="path262"
       inkscape:original-d="m 100.29042,111.3469 c 5.90221,-9.87871 14.66507,13.70884 21.99734,20.56305 7.33229,6.85419 -9.67599,13.4045 -14.51423,20.10652 -4.83825,6.70201 -16.79329,-7.35581 -25.190179,-11.03397 -8.396887,-3.67815 11.804882,-19.7569 17.707069,-29.6356 z"
       inkscape:path-effect="#path-effect276"
       transform="translate(-47.049862,-72.235383)" /><path
       style="fill:#ffffff;stroke:none;stroke-width:0.0324379px;stroke-linecap:butt;stroke-linejoin:miter;stroke-opacity:1"
       d="m 101.31859,128.02355 c 1.12107,-0.0618 2.26029,0.35423 3.07909,1.12247 0.81879,0.76825 1.3063,1.87784 1.32027,3.00053 0.011,0.88679 -0.26832,1.77506 -0.78613,2.49505 -0.51781,0.71999 -1.27148,1.26767 -2.11664,1.53641 -0.95436,0.30347 -2.01856,0.24586 -2.93526,-0.15732 -0.916704,-0.40318 -1.67803,-1.14807 -2.102645,-2.05504 -0.576179,-1.23071 -0.502566,-2.74478 0.192425,-3.91252 0.694991,-1.16774 1.99204,-1.95481 3.34889,-2.02958 z"
       id="path264"
       inkscape:original-d="m 101.31859,128.02355 c 1.18044,-1.98071 2.93295,2.74872 4.39936,4.123 1.46645,1.37429 -1.93515,2.68767 -2.90277,4.03146 -0.96763,1.34377 -3.358561,-1.47487 -5.037905,-2.21236 -1.679314,-0.73751 2.360925,-3.96138 3.541315,-5.9421 z"
       inkscape:path-effect="#path-effect280"
       transform="translate(-47.049862,-72.235383)" /><path
       id="path266"
       style="display:inline;fill:#ffffff;stroke:none;stroke-width:5.66499;stroke-linecap:round;stroke-linejoin:round;paint-order:markers fill stroke"
       d="m 65.314381,83.942679 c -0.427989,0.400374 -0.863102,0.652793 -1.277441,1.067635 -0.18253,0.182756 -0.655868,0.553541 -0.835608,0.738973 -1.129989,6.420656 -2.139486,15.845963 -2.760555,22.335583 -0.741219,7.74503 -1.118456,15.53508 -0.966866,23.32416 0.16051,8.24751 0.9107,16.44749 1.48053,24.63106 0.232849,3.34408 0.438125,6.74374 1.153934,10.09757 1.008599,4.72573 3.044735,9.27069 6.148462,13.01161 3.541997,4.26917 8.266552,7.29031 13.021428,9.91206 5.284134,2.91359 10.994687,5.53559 17.152441,5.96294 0.616579,0.0428 1.243215,0.0619 1.858284,0.061 0.61507,9.4e-4 1.23085,-0.0182 1.84743,-0.061 6.15776,-0.42735 11.86831,-3.04935 17.15244,-5.96294 4.75488,-2.62175 9.47944,-5.64289 13.02143,-9.91206 3.10373,-3.74092 5.13986,-8.28588 6.14846,-13.01161 0.71581,-3.35383 0.92109,-6.75349 1.15394,-10.09757 0.56983,-8.18357 1.32002,-16.38355 1.48053,-24.63106 0.15159,-7.78908 -0.22565,-15.57913 -0.96687,-23.32416 -0.62107,-6.48962 -1.49982,-12.954901 -2.62981,-19.375557 -0.17974,-0.185432 -0.35749,-0.372766 -0.54002,-0.555522 -0.41434,-0.414841 -0.8386,-0.819706 -1.26659,-1.22008 1.30149,7.049167 2.2947,14.156029 2.9776,21.291719 0.73683,7.69923 1.11148,15.43135 0.96118,23.15415 -0.15915,8.17739 -0.90768,16.35392 -1.47898,24.5587 -0.23344,3.35249 -0.43759,6.68133 -1.12293,9.89242 -0.96451,4.51911 -2.91342,8.84904 -5.84564,12.38323 -3.34929,4.0369 -7.90346,6.97689 -12.59975,9.56634 -5.21737,2.87679 -10.74121,5.3802 -16.54679,5.78311 -0.58144,0.0404 -1.16335,0.0579 -1.74563,0.0568 -0.582279,0.001 -1.175042,-0.0164 -1.756481,-0.0568 -5.805585,-0.40291 -11.329419,-2.90632 -16.546794,-5.78311 -4.696285,-2.58945 -9.250451,-5.52944 -12.599748,-9.56634 -2.932217,-3.53419 -4.881129,-7.86412 -5.845638,-12.38323 -0.685339,-3.21109 -0.889489,-6.53993 -1.122929,-9.89242 -0.571299,-8.20478 -1.319829,-16.38131 -1.478979,-24.5587 -0.1503,-7.7228 0.224352,-15.45492 0.961182,-23.15415 0.682899,-7.13569 2.977596,-21.291719 2.977596,-21.291719 z"
       transform="translate(-47.049862,-72.235383)" /><path
       style="display:inline;fill:none;stroke:#ffffff;stroke-width:2.765;stroke-linecap:round;stroke-linejoin:miter;stroke-dasharray:none;stroke-opacity:1"
       d="m 88.030607,145.62344 9.183938,-9.18394"
       id="path4301"
       inkscape:path-effect="#path-effect4315"
       inkscape:original-d="m 88.030607,145.62344 c 3.06132,-3.06169 6.122632,-6.123 9.183938,-9.18394"
       inkscape:transform-center-y="8.8560518"
       inkscape:transform-center-x="8.8560668"
       inkscape:label="6"
       transform="translate(-47.049862,-72.235383)" /></g><g
     inkscape:groupmode="layer"
     id="g292"
     inkscape:label="5"
     style="display:inline"
     transform="translate(-138.13013,9.9716779)"><path
       style="display:inline;fill:#000000;stroke:none;stroke-width:5.66499;stroke-linecap:round;stroke-linejoin:round;paint-order:markers fill stroke"
       d="m 98.492696,72.235384 c -0.45905,7.6e-5 -0.918645,0.0063 -1.377694,0.0186 -13.988375,0.374538 -27.813364,6.468311 -37.240104,16.806726 -9.426269,10.337901 -14.232905,24.8434 -12.462805,38.71857 0.03627,0.28426 0.07057,0.56841 0.09767,0.85525 l 5.179528,54.83386 a 0.1322915,0.1322915 0 0 1 0,0.004 0.1322915,0.1322915 0 0 1 0.0062,0.006 c 0.332661,6.38447 3.343538,12.593 8.151957,16.80621 4.802566,4.20808 11.083537,6.33607 17.328141,7.78919 13.527249,3.14779 27.727121,3.56358 41.338051,0.81287 2.12141,-0.42873 4.22838,-0.93298 6.29677,-1.56269 9.1774,-2.79399 17.57318,-8.10722 24.03522,-15.19753 l 2.98845,-64.08549 a 0.1322915,0.1322915 0 0 1 -0.0413,-0.0434 C 153.20385,113.3088 147.33377,98.543657 136.94926,88.146558 126.88927,78.074369 112.72325,72.233045 98.492696,72.235384 Z"
       id="path282"
       transform="translate(-47.049862,-72.235383)" /><path
       style="fill:#ffffff;stroke:none;stroke-width:0.264583px;stroke-linecap:butt;stroke-linejoin:miter;stroke-opacity:1"
       d="m 99.627292,98.177394 c 9.144128,-0.503898 18.436268,2.889296 25.114808,9.155556 6.67854,6.26626 10.65497,15.31676 10.76892,24.47405 0.09,7.23318 -2.18857,14.47845 -6.41216,20.35112 -4.22359,5.87267 -10.37095,10.33986 -17.26457,12.53188 -7.78434,2.47525 -16.46456,2.00534 -23.94174,-1.28323 -7.477179,-3.28856 -13.687001,-9.36434 -17.150402,-16.76216 -4.699636,-10.03842 -4.099177,-22.38806 1.569599,-31.91283 5.668775,-9.52478 16.248275,-15.944511 27.315545,-16.554386 z"
       id="path284"
       inkscape:original-d="M 99.627292,98.177394 C 109.25541,82.021388 123.55004,120.59739 135.51102,131.807 147.472,143.0166 119.7268,153.72926 111.83429,164.69 103.94178,175.65073 84.439793,152.66001 70.742148,146.64461 57.044505,140.62922 89.999173,114.3334 99.627292,98.177394 Z"
       inkscape:path-effect="#path-effect296"
       transform="translate(-47.049862,-72.235383)" /><path
       style="fill:#000000;stroke:none;stroke-width:0.161988px;stroke-linecap:butt;stroke-linejoin:miter;stroke-opacity:1"
       d="m 100.29042,111.3469 c 5.59965,-0.31307 11.29341,1.75302 15.39015,5.58326 4.09675,3.83024 6.54047,9.37179 6.60719,14.97979 0.0527,4.4263 -1.35002,8.85816 -3.94064,12.44753 -2.59063,3.58937 -6.35537,6.31679 -10.57359,7.65899 -4.77008,1.5178 -10.088811,1.23803 -14.673803,-0.77075 -4.584991,-2.00878 -8.396107,-5.72871 -10.516376,-10.26322 -2.871985,-6.14217 -2.490648,-13.69793 0.986643,-19.51884 3.477291,-5.8209 9.950548,-9.73827 16.720426,-10.11676 z"
       id="path286"
       inkscape:original-d="m 100.29042,111.3469 c 5.90221,-9.87871 14.66507,13.70884 21.99734,20.56305 7.33229,6.85419 -9.67599,13.4045 -14.51423,20.10652 -4.83825,6.70201 -16.79329,-7.35581 -25.190179,-11.03397 -8.396887,-3.67815 11.804882,-19.7569 17.707069,-29.6356 z"
       inkscape:path-effect="#path-effect300"
       transform="translate(-47.049862,-72.235383)" /><path
       style="fill:#ffffff;stroke:none;stroke-width:0.0324379px;stroke-linecap:butt;stroke-linejoin:miter;stroke-opacity:1"
       d="m 101.31859,128.02355 c 1.12107,-0.0618 2.26029,0.35423 3.07909,1.12247 0.81879,0.76825 1.3063,1.87784 1.32027,3.00053 0.011,0.88679 -0.26832,1.77506 -0.78613,2.49505 -0.51781,0.71999 -1.27148,1.26767 -2.11664,1.53641 -0.95436,0.30347 -2.01856,0.24586 -2.93526,-0.15732 -0.916704,-0.40318 -1.67803,-1.14807 -2.102645,-2.05504 -0.576179,-1.23071 -0.502566,-2.74478 0.192425,-3.91252 0.694991,-1.16774 1.99204,-1.95481 3.34889,-2.02958 z"
       id="path288"
       inkscape:original-d="m 101.31859,128.02355 c 1.18044,-1.98071 2.93295,2.74872 4.39936,4.123 1.46645,1.37429 -1.93515,2.68767 -2.90277,4.03146 -0.96763,1.34377 -3.358561,-1.47487 -5.037905,-2.21236 -1.679314,-0.73751 2.360925,-3.96138 3.541315,-5.9421 z"
       inkscape:path-effect="#path-effect304"
       transform="translate(-47.049862,-72.235383)" /><path
       id="path290"
       style="display:inline;fill:#ffffff;stroke:none;stroke-width:5.66499;stroke-linecap:round;stroke-linejoin:round;paint-order:markers fill stroke"
       d="m 65.314381,83.942679 c -0.427989,0.400374 -0.863102,0.652793 -1.277441,1.067635 -0.18253,0.182756 -0.655868,0.553541 -0.835608,0.738973 -1.129989,6.420656 -2.139486,15.845963 -2.760555,22.335583 -0.741219,7.74503 -1.118456,15.53508 -0.966866,23.32416 0.16051,8.24751 0.9107,16.44749 1.48053,24.63106 0.232849,3.34408 0.438125,6.74374 1.153934,10.09757 1.008599,4.72573 3.044735,9.27069 6.148462,13.01161 3.541997,4.26917 8.266552,7.29031 13.021428,9.91206 5.284134,2.91359 10.994687,5.53559 17.152441,5.96294 0.616579,0.0428 1.243215,0.0619 1.858284,0.061 0.61507,9.4e-4 1.23085,-0.0182 1.84743,-0.061 6.15776,-0.42735 11.86831,-3.04935 17.15244,-5.96294 4.75488,-2.62175 9.47944,-5.64289 13.02143,-9.91206 3.10373,-3.74092 5.13986,-8.28588 6.14846,-13.01161 0.71581,-3.35383 0.92109,-6.75349 1.15394,-10.09757 0.56983,-8.18357 1.32002,-16.38355 1.48053,-24.63106 0.15159,-7.78908 -0.22565,-15.57913 -0.96687,-23.32416 -0.62107,-6.48962 -1.49982,-12.954901 -2.62981,-19.375557 -0.17974,-0.185432 -0.35749,-0.372766 -0.54002,-0.555522 -0.41434,-0.414841 -0.8386,-0.819706 -1.26659,-1.22008 1.30149,7.049167 2.2947,14.156029 2.9776,21.291719 0.73683,7.69923 1.11148,15.43135 0.96118,23.15415 -0.15915,8.17739 -0.90768,16.35392 -1.47898,24.5587 -0.23344,3.35249 -0.43759,6.68133 -1.12293,9.89242 -0.96451,4.51911 -2.91342,8.84904 -5.84564,12.38323 -3.34929,4.0369 -7.90346,6.97689 -12.59975,9.56634 -5.21737,2.87679 -10.74121,5.3802 -16.54679,5.78311 -0.58144,0.0404 -1.16335,0.0579 -1.74563,0.0568 -0.582279,0.001 -1.175042,-0.0164 -1.756481,-0.0568 -5.805585,-0.40291 -11.329419,-2.90632 -16.546794,-5.78311 -4.696285,-2.58945 -9.250451,-5.52944 -12.599748,-9.56634 -2.932217,-3.53419 -4.881129,-7.86412 -5.845638,-12.38323 -0.685339,-3.21109 -0.889489,-6.53993 -1.122929,-9.89242 -0.571299,-8.20478 -1.319829,-16.38131 -1.478979,-24.5587 -0.1503,-7.7228 0.224352,-15.45492 0.961182,-23.15415 0.682899,-7.13569 2.977596,-21.291719 2.977596,-21.291719 z"
       transform="translate(-47.049862,-72.235383)" /><path
       style="display:inline;fill:none;stroke:#ffffff;stroke-width:2.765;stroke-linecap:round;stroke-linejoin:miter;stroke-dasharray:none;stroke-opacity:1"
       d="M 101.47863,151.1938 V 138.20575"
       id="path4285"
       inkscape:path-effect="#path-effect4289"
       inkscape:original-d="m 101.47863,151.1938 c -2.6e-4,-4.32962 -2.6e-4,-8.65897 0,-12.98805"
       inkscape:transform-center-y="12.52436"
       inkscape:transform-center-x="9.9322054e-06"
       inkscape:label="5"
       transform="translate(-47.049862,-72.235383)" /></g><g
     inkscape:groupmode="layer"
     id="g316"
     inkscape:label="4"
     style="display:inline"
     transform="translate(228.17237,-139.45218)"><path
       style="display:inline;fill:#000000;stroke:none;stroke-width:5.66499;stroke-linecap:round;stroke-linejoin:round;paint-order:markers fill stroke"
       d="m 98.492696,72.235384 c -0.45905,7.6e-5 -0.918645,0.0063 -1.377694,0.0186 -13.988375,0.374538 -27.813364,6.468311 -37.240104,16.806726 -9.426269,10.337901 -14.232905,24.8434 -12.462805,38.71857 0.03627,0.28426 0.07057,0.56841 0.09767,0.85525 l 5.179528,54.83386 a 0.1322915,0.1322915 0 0 1 0,0.004 0.1322915,0.1322915 0 0 1 0.0062,0.006 c 0.332661,6.38447 3.343538,12.593 8.151957,16.80621 4.802566,4.20808 11.083537,6.33607 17.328141,7.78919 13.527249,3.14779 27.727121,3.56358 41.338051,0.81287 2.12141,-0.42873 4.22838,-0.93298 6.29677,-1.56269 9.1774,-2.79399 17.57318,-8.10722 24.03522,-15.19753 l 2.98845,-64.08549 a 0.1322915,0.1322915 0 0 1 -0.0413,-0.0434 C 153.20385,113.3088 147.33377,98.543657 136.94926,88.146558 126.88927,78.074369 112.72325,72.233045 98.492696,72.235384 Z"
       id="path306"
       transform="translate(-47.049862,-72.235383)" /><path
       style="fill:#ffffff;stroke:none;stroke-width:0.264583px;stroke-linecap:butt;stroke-linejoin:miter;stroke-opacity:1"
       d="m 99.627292,98.177394 c 9.144128,-0.503898 18.436268,2.889296 25.114808,9.155556 6.67854,6.26626 10.65497,15.31676 10.76892,24.47405 0.09,7.23318 -2.18857,14.47845 -6.41216,20.35112 -4.22359,5.87267 -10.37095,10.33986 -17.26457,12.53188 -7.78434,2.47525 -16.46456,2.00534 -23.94174,-1.28323 -7.477179,-3.28856 -13.687001,-9.36434 -17.150402,-16.76216 -4.699636,-10.03842 -4.099177,-22.38806 1.569599,-31.91283 5.668775,-9.52478 16.248275,-15.944511 27.315545,-16.554386 z"
       id="path308"
       inkscape:original-d="M 99.627292,98.177394 C 109.25541,82.021388 123.55004,120.59739 135.51102,131.807 147.472,143.0166 119.7268,153.72926 111.83429,164.69 103.94178,175.65073 84.439793,152.66001 70.742148,146.64461 57.044505,140.62922 89.999173,114.3334 99.627292,98.177394 Z"
       inkscape:path-effect="#path-effect320"
       transform="translate(-47.049862,-72.235383)" /><path
       style="fill:#000000;stroke:none;stroke-width:0.161988px;stroke-linecap:butt;stroke-linejoin:miter;stroke-opacity:1"
       d="m 100.29042,111.3469 c 5.59965,-0.31307 11.29341,1.75302 15.39015,5.58326 4.09675,3.83024 6.54047,9.37179 6.60719,14.97979 0.0527,4.4263 -1.35002,8.85816 -3.94064,12.44753 -2.59063,3.58937 -6.35537,6.31679 -10.57359,7.65899 -4.77008,1.5178 -10.088811,1.23803 -14.673803,-0.77075 -4.584991,-2.00878 -8.396107,-5.72871 -10.516376,-10.26322 -2.871985,-6.14217 -2.490648,-13.69793 0.986643,-19.51884 3.477291,-5.8209 9.950548,-9.73827 16.720426,-10.11676 z"
       id="path310"
       inkscape:original-d="m 100.29042,111.3469 c 5.90221,-9.87871 14.66507,13.70884 21.99734,20.56305 7.33229,6.85419 -9.67599,13.4045 -14.51423,20.10652 -4.83825,6.70201 -16.79329,-7.35581 -25.190179,-11.03397 -8.396887,-3.67815 11.804882,-19.7569 17.707069,-29.6356 z"
       inkscape:path-effect="#path-effect324"
       transform="translate(-47.049862,-72.235383)" /><path
       style="fill:#ffffff;stroke:none;stroke-width:0.0324379px;stroke-linecap:butt;stroke-linejoin:miter;stroke-opacity:1"
       d="m 101.31859,128.02355 c 1.12107,-0.0618 2.26029,0.35423 3.07909,1.12247 0.81879,0.76825 1.3063,1.87784 1.32027,3.00053 0.011,0.88679 -0.26832,1.77506 -0.78613,2.49505 -0.51781,0.71999 -1.27148,1.26767 -2.11664,1.53641 -0.95436,0.30347 -2.01856,0.24586 -2.93526,-0.15732 -0.916704,-0.40318 -1.67803,-1.14807 -2.102645,-2.05504 -0.576179,-1.23071 -0.502566,-2.74478 0.192425,-3.91252 0.694991,-1.16774 1.99204,-1.95481 3.34889,-2.02958 z"
       id="path312"
       inkscape:original-d="m 101.31859,128.02355 c 1.18044,-1.98071 2.93295,2.74872 4.39936,4.123 1.46645,1.37429 -1.93515,2.68767 -2.90277,4.03146 -0.96763,1.34377 -3.358561,-1.47487 -5.037905,-2.21236 -1.679314,-0.73751 2.360925,-3.96138 3.541315,-5.9421 z"
       inkscape:path-effect="#path-effect328"
       transform="translate(-47.049862,-72.235383)" /><path
       id="path314"
       style="display:inline;fill:#ffffff;stroke:none;stroke-width:5.66499;stroke-linecap:round;stroke-linejoin:round;paint-order:markers fill stroke"
       d="m 65.314381,83.942679 c -0.427989,0.400374 -0.863102,0.652793 -1.277441,1.067635 -0.18253,0.182756 -0.655868,0.553541 -0.835608,0.738973 -1.129989,6.420656 -2.139486,15.845963 -2.760555,22.335583 -0.741219,7.74503 -1.118456,15.53508 -0.966866,23.32416 0.16051,8.24751 0.9107,16.44749 1.48053,24.63106 0.232849,3.34408 0.438125,6.74374 1.153934,10.09757 1.008599,4.72573 3.044735,9.27069 6.148462,13.01161 3.541997,4.26917 8.266552,7.29031 13.021428,9.91206 5.284134,2.91359 10.994687,5.53559 17.152441,5.96294 0.616579,0.0428 1.243215,0.0619 1.858284,0.061 0.61507,9.4e-4 1.23085,-0.0182 1.84743,-0.061 6.15776,-0.42735 11.86831,-3.04935 17.15244,-5.96294 4.75488,-2.62175 9.47944,-5.64289 13.02143,-9.91206 3.10373,-3.74092 5.13986,-8.28588 6.14846,-13.01161 0.71581,-3.35383 0.92109,-6.75349 1.15394,-10.09757 0.56983,-8.18357 1.32002,-16.38355 1.48053,-24.63106 0.15159,-7.78908 -0.22565,-15.57913 -0.96687,-23.32416 -0.62107,-6.48962 -1.49982,-12.954901 -2.62981,-19.375557 -0.17974,-0.185432 -0.35749,-0.372766 -0.54002,-0.555522 -0.41434,-0.414841 -0.8386,-0.819706 -1.26659,-1.22008 1.30149,7.049167 2.2947,14.156029 2.9776,21.291719 0.73683,7.69923 1.11148,15.43135 0.96118,23.15415 -0.15915,8.17739 -0.90768,16.35392 -1.47898,24.5587 -0.23344,3.35249 -0.43759,6.68133 -1.12293,9.89242 -0.96451,4.51911 -2.91342,8.84904 -5.84564,12.38323 -3.34929,4.0369 -7.90346,6.97689 -12.59975,9.56634 -5.21737,2.87679 -10.74121,5.3802 -16.54679,5.78311 -0.58144,0.0404 -1.16335,0.0579 -1.74563,0.0568 -0.582279,0.001 -1.175042,-0.0164 -1.756481,-0.0568 -5.805585,-0.40291 -11.329419,-2.90632 -16.546794,-5.78311 -4.696285,-2.58945 -9.250451,-5.52944 -12.599748,-9.56634 -2.932217,-3.53419 -4.881129,-7.86412 -5.845638,-12.38323 -0.685339,-3.21109 -0.889489,-6.53993 -1.122929,-9.89242 -0.571299,-8.20478 -1.319829,-16.38131 -1.478979,-24.5587 -0.1503,-7.7228 0.224352,-15.45492 0.961182,-23.15415 0.682899,-7.13569 2.977596,-21.291719 2.977596,-21.291719 z"
       transform="translate(-47.049862,-72.235383)" /><path
       style="display:inline;fill:none;stroke:#ffffff;stroke-width:2.765;stroke-linecap:round;stroke-linejoin:miter;stroke-dasharray:none;stroke-opacity:1"
       d="m 114.92666,145.62345 -9.18393,-9.18394"
       id="path4299"
       inkscape:path-effect="#path-effect4311"
       inkscape:original-d="m 114.92666,145.62345 c -3.06168,-3.06132 -6.123,-6.12264 -9.18393,-9.18394"
       inkscape:transform-center-y="8.8560617"
       inkscape:transform-center-x="-8.8560522"
       inkscape:label="4"
       transform="translate(-47.049862,-72.235383)" /></g><g
     inkscape:groupmode="layer"
     id="g340"
     inkscape:label="3"
     style="display:inline"
     transform="translate(107.79264,-138.5704)"><path
       style="display:inline;fill:#000000;stroke:none;stroke-width:5.66499;stroke-linecap:round;stroke-linejoin:round;paint-order:markers fill stroke"
       d="m 98.492696,72.235384 c -0.45905,7.6e-5 -0.918645,0.0063 -1.377694,0.0186 -13.988375,0.374538 -27.813364,6.468311 -37.240104,16.806726 -9.426269,10.337901 -14.232905,24.8434 -12.462805,38.71857 0.03627,0.28426 0.07057,0.56841 0.09767,0.85525 l 5.179528,54.83386 a 0.1322915,0.1322915 0 0 1 0,0.004 0.1322915,0.1322915 0 0 1 0.0062,0.006 c 0.332661,6.38447 3.343538,12.593 8.151957,16.80621 4.802566,4.20808 11.083537,6.33607 17.328141,7.78919 13.527249,3.14779 27.727121,3.56358 41.338051,0.81287 2.12141,-0.42873 4.22838,-0.93298 6.29677,-1.56269 9.1774,-2.79399 17.57318,-8.10722 24.03522,-15.19753 l 2.98845,-64.08549 a 0.1322915,0.1322915 0 0 1 -0.0413,-0.0434 C 153.20385,113.3088 147.33377,98.543657 136.94926,88.146558 126.88927,78.074369 112.72325,72.233045 98.492696,72.235384 Z"
       id="path330"
       transform="translate(-47.049862,-72.235383)" /><path
       style="fill:#ffffff;stroke:none;stroke-width:0.264583px;stroke-linecap:butt;stroke-linejoin:miter;stroke-opacity:1"
       d="m 99.627292,98.177394 c 9.144128,-0.503898 18.436268,2.889296 25.114808,9.155556 6.67854,6.26626 10.65497,15.31676 10.76892,24.47405 0.09,7.23318 -2.18857,14.47845 -6.41216,20.35112 -4.22359,5.87267 -10.37095,10.33986 -17.26457,12.53188 -7.78434,2.47525 -16.46456,2.00534 -23.94174,-1.28323 -7.477179,-3.28856 -13.687001,-9.36434 -17.150402,-16.76216 -4.699636,-10.03842 -4.099177,-22.38806 1.569599,-31.91283 5.668775,-9.52478 16.248275,-15.944511 27.315545,-16.554386 z"
       id="path332"
       inkscape:original-d="M 99.627292,98.177394 C 109.25541,82.021388 123.55004,120.59739 135.51102,131.807 147.472,143.0166 119.7268,153.72926 111.83429,164.69 103.94178,175.65073 84.439793,152.66001 70.742148,146.64461 57.044505,140.62922 89.999173,114.3334 99.627292,98.177394 Z"
       inkscape:path-effect="#path-effect344"
       transform="translate(-47.049862,-72.235383)" /><path
       style="fill:#000000;stroke:none;stroke-width:0.161988px;stroke-linecap:butt;stroke-linejoin:miter;stroke-opacity:1"
       d="m 100.29042,111.3469 c 5.59965,-0.31307 11.29341,1.75302 15.39015,5.58326 4.09675,3.83024 6.54047,9.37179 6.60719,14.97979 0.0527,4.4263 -1.35002,8.85816 -3.94064,12.44753 -2.59063,3.58937 -6.35537,6.31679 -10.57359,7.65899 -4.77008,1.5178 -10.088811,1.23803 -14.673803,-0.77075 -4.584991,-2.00878 -8.396107,-5.72871 -10.516376,-10.26322 -2.871985,-6.14217 -2.490648,-13.69793 0.986643,-19.51884 3.477291,-5.8209 9.950548,-9.73827 16.720426,-10.11676 z"
       id="path334"
       inkscape:original-d="m 100.29042,111.3469 c 5.90221,-9.87871 14.66507,13.70884 21.99734,20.56305 7.33229,6.85419 -9.67599,13.4045 -14.51423,20.10652 -4.83825,6.70201 -16.79329,-7.35581 -25.190179,-11.03397 -8.396887,-3.67815 11.804882,-19.7569 17.707069,-29.6356 z"
       inkscape:path-effect="#path-effect348"
       transform="translate(-47.049862,-72.235383)" /><path
       style="fill:#ffffff;stroke:none;stroke-width:0.0324379px;stroke-linecap:butt;stroke-linejoin:miter;stroke-opacity:1"
       d="m 101.31859,128.02355 c 1.12107,-0.0618 2.26029,0.35423 3.07909,1.12247 0.81879,0.76825 1.3063,1.87784 1.32027,3.00053 0.011,0.88679 -0.26832,1.77506 -0.78613,2.49505 -0.51781,0.71999 -1.27148,1.26767 -2.11664,1.53641 -0.95436,0.30347 -2.01856,0.24586 -2.93526,-0.15732 -0.916704,-0.40318 -1.67803,-1.14807 -2.102645,-2.05504 -0.576179,-1.23071 -0.502566,-2.74478 0.192425,-3.91252 0.694991,-1.16774 1.99204,-1.95481 3.34889,-2.02958 z"
       id="path336"
       inkscape:original-d="m 101.31859,128.02355 c 1.18044,-1.98071 2.93295,2.74872 4.39936,4.123 1.46645,1.37429 -1.93515,2.68767 -2.90277,4.03146 -0.96763,1.34377 -3.358561,-1.47487 -5.037905,-2.21236 -1.679314,-0.73751 2.360925,-3.96138 3.541315,-5.9421 z"
       inkscape:path-effect="#path-effect352"
       transform="translate(-47.049862,-72.235383)" /><path
       id="path338"
       style="display:inline;fill:#ffffff;stroke:none;stroke-width:5.66499;stroke-linecap:round;stroke-linejoin:round;paint-order:markers fill stroke"
       d="m 65.314381,83.942679 c -0.427989,0.400374 -0.863102,0.652793 -1.277441,1.067635 -0.18253,0.182756 -0.655868,0.553541 -0.835608,0.738973 -1.129989,6.420656 -2.139486,15.845963 -2.760555,22.335583 -0.741219,7.74503 -1.118456,15.53508 -0.966866,23.32416 0.16051,8.24751 0.9107,16.44749 1.48053,24.63106 0.232849,3.34408 0.438125,6.74374 1.153934,10.09757 1.008599,4.72573 3.044735,9.27069 6.148462,13.01161 3.541997,4.26917 8.266552,7.29031 13.021428,9.91206 5.284134,2.91359 10.994687,5.53559 17.152441,5.96294 0.616579,0.0428 1.243215,0.0619 1.858284,0.061 0.61507,9.4e-4 1.23085,-0.0182 1.84743,-0.061 6.15776,-0.42735 11.86831,-3.04935 17.15244,-5.96294 4.75488,-2.62175 9.47944,-5.64289 13.02143,-9.91206 3.10373,-3.74092 5.13986,-8.28588 6.14846,-13.01161 0.71581,-3.35383 0.92109,-6.75349 1.15394,-10.09757 0.56983,-8.18357 1.32002,-16.38355 1.48053,-24.63106 0.15159,-7.78908 -0.22565,-15.57913 -0.96687,-23.32416 -0.62107,-6.48962 -1.49982,-12.954901 -2.62981,-19.375557 -0.17974,-0.185432 -0.35749,-0.372766 -0.54002,-0.555522 -0.41434,-0.414841 -0.8386,-0.819706 -1.26659,-1.22008 1.30149,7.049167 2.2947,14.156029 2.9776,21.291719 0.73683,7.69923 1.11148,15.43135 0.96118,23.15415 -0.15915,8.17739 -0.90768,16.35392 -1.47898,24.5587 -0.23344,3.35249 -0.43759,6.68133 -1.12293,9.89242 -0.96451,4.51911 -2.91342,8.84904 -5.84564,12.38323 -3.34929,4.0369 -7.90346,6.97689 -12.59975,9.56634 -5.21737,2.87679 -10.74121,5.3802 -16.54679,5.78311 -0.58144,0.0404 -1.16335,0.0579 -1.74563,0.0568 -0.582279,0.001 -1.175042,-0.0164 -1.756481,-0.0568 -5.805585,-0.40291 -11.329419,-2.90632 -16.546794,-5.78311 -4.696285,-2.58945 -9.250451,-5.52944 -12.599748,-9.56634 -2.932217,-3.53419 -4.881129,-7.86412 -5.845638,-12.38323 -0.685339,-3.21109 -0.889489,-6.53993 -1.122929,-9.89242 -0.571299,-8.20478 -1.319829,-16.38131 -1.478979,-24.5587 -0.1503,-7.7228 0.224352,-15.45492 0.961182,-23.15415 0.682899,-7.13569 2.977596,-21.291719 2.977596,-21.291719 z"
       transform="translate(-47.049862,-72.235383)" /><path
       style="display:inline;fill:none;stroke:#ffffff;stroke-width:2.765;stroke-linecap:round;stroke-linejoin:miter;stroke-dasharray:none;stroke-opacity:1"
       d="M 120.49702,132.17542 H 107.50897"
       id="path2827"
       inkscape:path-effect="#path-effect2831"
       inkscape:original-d="m 120.49702,132.17542 c -4.32962,2.6e-4 -8.65897,2.6e-4 -12.98805,0"
       inkscape:transform-center-y="4.9322055e-06"
       inkscape:transform-center-x="-12.524355"
       inkscape:label="3"
       transform="translate(-47.049862,-72.235383)" /></g><g
     inkscape:groupmode="layer"
     id="g364"
     inkscape:label="2"
     style="display:inline"
     transform="translate(-19.44752,-137.81624)"><path
       style="display:inline;fill:#000000;stroke:none;stroke-width:5.66499;stroke-linecap:round;stroke-linejoin:round;paint-order:markers fill stroke"
       d="m 98.492696,72.235384 c -0.45905,7.6e-5 -0.918645,0.0063 -1.377694,0.0186 -13.988375,0.374538 -27.813364,6.468311 -37.240104,16.806726 -9.426269,10.337901 -14.232905,24.8434 -12.462805,38.71857 0.03627,0.28426 0.07057,0.56841 0.09767,0.85525 l 5.179528,54.83386 a 0.1322915,0.1322915 0 0 1 0,0.004 0.1322915,0.1322915 0 0 1 0.0062,0.006 c 0.332661,6.38447 3.343538,12.593 8.151957,16.80621 4.802566,4.20808 11.083537,6.33607 17.328141,7.78919 13.527249,3.14779 27.727121,3.56358 41.338051,0.81287 2.12141,-0.42873 4.22838,-0.93298 6.29677,-1.56269 9.1774,-2.79399 17.57318,-8.10722 24.03522,-15.19753 l 2.98845,-64.08549 a 0.1322915,0.1322915 0 0 1 -0.0413,-0.0434 C 153.20385,113.3088 147.33377,98.543657 136.94926,88.146558 126.88927,78.074369 112.72325,72.233045 98.492696,72.235384 Z"
       id="path354"
       transform="translate(-47.049862,-72.235383)" /><path
       style="fill:#ffffff;stroke:none;stroke-width:0.264583px;stroke-linecap:butt;stroke-linejoin:miter;stroke-opacity:1"
       d="m 99.627292,98.177394 c 9.144128,-0.503898 18.436268,2.889296 25.114808,9.155556 6.67854,6.26626 10.65497,15.31676 10.76892,24.47405 0.09,7.23318 -2.18857,14.47845 -6.41216,20.35112 -4.22359,5.87267 -10.37095,10.33986 -17.26457,12.53188 -7.78434,2.47525 -16.46456,2.00534 -23.94174,-1.28323 -7.477179,-3.28856 -13.687001,-9.36434 -17.150402,-16.76216 -4.699636,-10.03842 -4.099177,-22.38806 1.569599,-31.91283 5.668775,-9.52478 16.248275,-15.944511 27.315545,-16.554386 z"
       id="path356"
       inkscape:original-d="M 99.627292,98.177394 C 109.25541,82.021388 123.55004,120.59739 135.51102,131.807 147.472,143.0166 119.7268,153.72926 111.83429,164.69 103.94178,175.65073 84.439793,152.66001 70.742148,146.64461 57.044505,140.62922 89.999173,114.3334 99.627292,98.177394 Z"
       inkscape:path-effect="#path-effect368"
       transform="translate(-47.049862,-72.235383)" /><path
       style="fill:#000000;stroke:none;stroke-width:0.161988px;stroke-linecap:butt;stroke-linejoin:miter;stroke-opacity:1"
       d="m 100.29042,111.3469 c 5.59965,-0.31307 11.29341,1.75302 15.39015,5.58326 4.09675,3.83024 6.54047,9.37179 6.60719,14.97979 0.0527,4.4263 -1.35002,8.85816 -3.94064,12.44753 -2.59063,3.58937 -6.35537,6.31679 -10.57359,7.65899 -4.77008,1.5178 -10.088811,1.23803 -14.673803,-0.77075 -4.584991,-2.00878 -8.396107,-5.72871 -10.516376,-10.26322 -2.871985,-6.14217 -2.490648,-13.69793 0.986643,-19.51884 3.477291,-5.8209 9.950548,-9.73827 16.720426,-10.11676 z"
       id="path358"
       inkscape:original-d="m 100.29042,111.3469 c 5.90221,-9.87871 14.66507,13.70884 21.99734,20.56305 7.33229,6.85419 -9.67599,13.4045 -14.51423,20.10652 -4.83825,6.70201 -16.79329,-7.35581 -25.190179,-11.03397 -8.396887,-3.67815 11.804882,-19.7569 17.707069,-29.6356 z"
       inkscape:path-effect="#path-effect372"
       transform="translate(-47.049862,-72.235383)" /><path
       style="fill:#ffffff;stroke:none;stroke-width:0.0324379px;stroke-linecap:butt;stroke-linejoin:miter;stroke-opacity:1"
       d="m 101.31859,128.02355 c 1.12107,-0.0618 2.26029,0.35423 3.07909,1.12247 0.81879,0.76825 1.3063,1.87784 1.32027,3.00053 0.011,0.88679 -0.26832,1.77506 -0.78613,2.49505 -0.51781,0.71999 -1.27148,1.26767 -2.11664,1.53641 -0.95436,0.30347 -2.01856,0.24586 -2.93526,-0.15732 -0.916704,-0.40318 -1.67803,-1.14807 -2.102645,-2.05504 -0.576179,-1.23071 -0.502566,-2.74478 0.192425,-3.91252 0.694991,-1.16774 1.99204,-1.95481 3.34889,-2.02958 z"
       id="path360"
       inkscape:original-d="m 101.31859,128.02355 c 1.18044,-1.98071 2.93295,2.74872 4.39936,4.123 1.46645,1.37429 -1.93515,2.68767 -2.90277,4.03146 -0.96763,1.34377 -3.358561,-1.47487 -5.037905,-2.21236 -1.679314,-0.73751 2.360925,-3.96138 3.541315,-5.9421 z"
       inkscape:path-effect="#path-effect376"
       transform="translate(-47.049862,-72.235383)" /><path
       id="path362"
       style="display:inline;fill:#ffffff;stroke:none;stroke-width:5.66499;stroke-linecap:round;stroke-linejoin:round;paint-order:markers fill stroke"
       d="m 65.314381,83.942679 c -0.427989,0.400374 -0.863102,0.652793 -1.277441,1.067635 -0.18253,0.182756 -0.655868,0.553541 -0.835608,0.738973 -1.129989,6.420656 -2.139486,15.845963 -2.760555,22.335583 -0.741219,7.74503 -1.118456,15.53508 -0.966866,23.32416 0.16051,8.24751 0.9107,16.44749 1.48053,24.63106 0.232849,3.34408 0.438125,6.74374 1.153934,10.09757 1.008599,4.72573 3.044735,9.27069 6.148462,13.01161 3.541997,4.26917 8.266552,7.29031 13.021428,9.91206 5.284134,2.91359 10.994687,5.53559 17.152441,5.96294 0.616579,0.0428 1.243215,0.0619 1.858284,0.061 0.61507,9.4e-4 1.23085,-0.0182 1.84743,-0.061 6.15776,-0.42735 11.86831,-3.04935 17.15244,-5.96294 4.75488,-2.62175 9.47944,-5.64289 13.02143,-9.91206 3.10373,-3.74092 5.13986,-8.28588 6.14846,-13.01161 0.71581,-3.35383 0.92109,-6.75349 1.15394,-10.09757 0.56983,-8.18357 1.32002,-16.38355 1.48053,-24.63106 0.15159,-7.78908 -0.22565,-15.57913 -0.96687,-23.32416 -0.62107,-6.48962 -1.49982,-12.954901 -2.62981,-19.375557 -0.17974,-0.185432 -0.35749,-0.372766 -0.54002,-0.555522 -0.41434,-0.414841 -0.8386,-0.819706 -1.26659,-1.22008 1.30149,7.049167 2.2947,14.156029 2.9776,21.291719 0.73683,7.69923 1.11148,15.43135 0.96118,23.15415 -0.15915,8.17739 -0.90768,16.35392 -1.47898,24.5587 -0.23344,3.35249 -0.43759,6.68133 -1.12293,9.89242 -0.96451,4.51911 -2.91342,8.84904 -5.84564,12.38323 -3.34929,4.0369 -7.90346,6.97689 -12.59975,9.56634 -5.21737,2.87679 -10.74121,5.3802 -16.54679,5.78311 -0.58144,0.0404 -1.16335,0.0579 -1.74563,0.0568 -0.582279,0.001 -1.175042,-0.0164 -1.756481,-0.0568 -5.805585,-0.40291 -11.329419,-2.90632 -16.546794,-5.78311 -4.696285,-2.58945 -9.250451,-5.52944 -12.599748,-9.56634 -2.932217,-3.53419 -4.881129,-7.86412 -5.845638,-12.38323 -0.685339,-3.21109 -0.889489,-6.53993 -1.122929,-9.89242 -0.571299,-8.20478 -1.319829,-16.38131 -1.478979,-24.5587 -0.1503,-7.7228 0.224352,-15.45492 0.961182,-23.15415 0.682899,-7.13569 2.977596,-21.291719 2.977596,-21.291719 z"
       transform="translate(-47.049862,-72.235383)" /><path
       style="display:inline;fill:none;stroke:#ffffff;stroke-width:2.765;stroke-linecap:round;stroke-linejoin:miter;stroke-dasharray:none;stroke-opacity:1"
       d="m 114.92666,118.7274 -9.18393,9.18393"
       id="path4297"
       inkscape:path-effect="#path-effect4307"
       inkscape:original-d="m 114.92666,118.7274 c -3.06132,3.06168 -6.12263,6.123 -9.18393,9.18393"
       inkscape:label="2"
       transform="translate(-47.049862,-72.235383)" /></g><g
     inkscape:groupmode="layer"
     id="g388"
     inkscape:label="1"
     style="display:inline"
     transform="translate(-145.93092,-135.46777)"><path
       style="display:inline;fill:#000000;stroke:none;stroke-width:5.66499;stroke-linecap:round;stroke-linejoin:round;paint-order:markers fill stroke"
       d="m 98.492696,72.235384 c -0.45905,7.6e-5 -0.918645,0.0063 -1.377694,0.0186 -13.988375,0.374538 -27.813364,6.468311 -37.240104,16.806726 -9.426269,10.337901 -14.232905,24.8434 -12.462805,38.71857 0.03627,0.28426 0.07057,0.56841 0.09767,0.85525 l 5.179528,54.83386 a 0.1322915,0.1322915 0 0 1 0,0.004 0.1322915,0.1322915 0 0 1 0.0062,0.006 c 0.332661,6.38447 3.343538,12.593 8.151957,16.80621 4.802566,4.20808 11.083537,6.33607 17.328141,7.78919 13.527249,3.14779 27.727121,3.56358 41.338051,0.81287 2.12141,-0.42873 4.22838,-0.93298 6.29677,-1.56269 9.1774,-2.79399 17.57318,-8.10722 24.03522,-15.19753 l 2.98845,-64.08549 a 0.1322915,0.1322915 0 0 1 -0.0413,-0.0434 C 153.20385,113.3088 147.33377,98.543657 136.94926,88.146558 126.88927,78.074369 112.72325,72.233045 98.492696,72.235384 Z"
       id="path378"
       transform="translate(-47.049862,-72.235383)" /><path
       style="fill:#ffffff;stroke:none;stroke-width:0.264583px;stroke-linecap:butt;stroke-linejoin:miter;stroke-opacity:1"
       d="m 99.627292,98.177394 c 9.144128,-0.503898 18.436268,2.889296 25.114808,9.155556 6.67854,6.26626 10.65497,15.31676 10.76892,24.47405 0.09,7.23318 -2.18857,14.47845 -6.41216,20.35112 -4.22359,5.87267 -10.37095,10.33986 -17.26457,12.53188 -7.78434,2.47525 -16.46456,2.00534 -23.94174,-1.28323 -7.477179,-3.28856 -13.687001,-9.36434 -17.150402,-16.76216 -4.699636,-10.03842 -4.099177,-22.38806 1.569599,-31.91283 5.668775,-9.52478 16.248275,-15.944511 27.315545,-16.554386 z"
       id="path380"
       transform="translate(-47.049862,-72.235383)"
       inkscape:original-d="M 99.627292,98.177394 C 109.25541,82.021388 123.55004,120.59739 135.51102,131.807 147.472,143.0166 119.7268,153.72926 111.83429,164.69 103.94178,175.65073 84.439793,152.66001 70.742148,146.64461 57.044505,140.62922 89.999173,114.3334 99.627292,98.177394 Z"
       inkscape:path-effect="#path-effect392" /><path
       style="fill:#000000;stroke:none;stroke-width:0.161988px;stroke-linecap:butt;stroke-linejoin:miter;stroke-opacity:1"
       d="m 100.29042,111.3469 c 5.59965,-0.31307 11.29341,1.75302 15.39015,5.58326 4.09675,3.83024 6.54047,9.37179 6.60719,14.97979 0.0527,4.4263 -1.35002,8.85816 -3.94064,12.44753 -2.59063,3.58937 -6.35537,6.31679 -10.57359,7.65899 -4.77008,1.5178 -10.088811,1.23803 -14.673803,-0.77075 -4.584991,-2.00878 -8.396107,-5.72871 -10.516376,-10.26322 -2.871985,-6.14217 -2.490648,-13.69793 0.986643,-19.51884 3.477291,-5.8209 9.950548,-9.73827 16.720426,-10.11676 z"
       id="path382"
       transform="translate(-47.049862,-72.235383)"
       inkscape:original-d="m 100.29042,111.3469 c 5.90221,-9.87871 14.66507,13.70884 21.99734,20.56305 7.33229,6.85419 -9.67599,13.4045 -14.51423,20.10652 -4.83825,6.70201 -16.79329,-7.35581 -25.190179,-11.03397 -8.396887,-3.67815 11.804882,-19.7569 17.707069,-29.6356 z"
       inkscape:path-effect="#path-effect396" /><path
       style="fill:#ffffff;stroke:none;stroke-width:0.0324379px;stroke-linecap:butt;stroke-linejoin:miter;stroke-opacity:1"
       d="m 101.31859,128.02355 c 1.12107,-0.0618 2.26029,0.35423 3.07909,1.12247 0.81879,0.76825 1.3063,1.87784 1.32027,3.00053 0.011,0.88679 -0.26832,1.77506 -0.78613,2.49505 -0.51781,0.71999 -1.27148,1.26767 -2.11664,1.53641 -0.95436,0.30347 -2.01856,0.24586 -2.93526,-0.15732 -0.916704,-0.40318 -1.67803,-1.14807 -2.102645,-2.05504 -0.576179,-1.23071 -0.502566,-2.74478 0.192425,-3.91252 0.694991,-1.16774 1.99204,-1.95481 3.34889,-2.02958 z"
       id="path384"
       transform="translate(-47.049862,-72.235383)"
       inkscape:original-d="m 101.31859,128.02355 c 1.18044,-1.98071 2.93295,2.74872 4.39936,4.123 1.46645,1.37429 -1.93515,2.68767 -2.90277,4.03146 -0.96763,1.34377 -3.358561,-1.47487 -5.037905,-2.21236 -1.679314,-0.73751 2.360925,-3.96138 3.541315,-5.9421 z"
       inkscape:path-effect="#path-effect400" /><path
       id="path386"
       style="display:inline;fill:#ffffff;stroke:none;stroke-width:5.66499;stroke-linecap:round;stroke-linejoin:round;paint-order:markers fill stroke"
       d="m 65.314381,83.942679 c -0.427989,0.400374 -0.863102,0.652793 -1.277441,1.067635 -0.18253,0.182756 -0.655868,0.553541 -0.835608,0.738973 -1.129989,6.420656 -2.139486,15.845963 -2.760555,22.335583 -0.741219,7.74503 -1.118456,15.53508 -0.966866,23.32416 0.16051,8.24751 0.9107,16.44749 1.48053,24.63106 0.232849,3.34408 0.438125,6.74374 1.153934,10.09757 1.008599,4.72573 3.044735,9.27069 6.148462,13.01161 3.541997,4.26917 8.266552,7.29031 13.021428,9.91206 5.284134,2.91359 10.994687,5.53559 17.152441,5.96294 0.616579,0.0428 1.243215,0.0619 1.858284,0.061 0.61507,9.4e-4 1.23085,-0.0182 1.84743,-0.061 6.15776,-0.42735 11.86831,-3.04935 17.15244,-5.96294 4.75488,-2.62175 9.47944,-5.64289 13.02143,-9.91206 3.10373,-3.74092 5.13986,-8.28588 6.14846,-13.01161 0.71581,-3.35383 0.92109,-6.75349 1.15394,-10.09757 0.56983,-8.18357 1.32002,-16.38355 1.48053,-24.63106 0.15159,-7.78908 -0.22565,-15.57913 -0.96687,-23.32416 -0.62107,-6.48962 -1.49982,-12.954901 -2.62981,-19.375557 -0.17974,-0.185432 -0.35749,-0.372766 -0.54002,-0.555522 -0.41434,-0.414841 -0.8386,-0.819706 -1.26659,-1.22008 1.30149,7.049167 2.2947,14.156029 2.9776,21.291719 0.73683,7.69923 1.11148,15.43135 0.96118,23.15415 -0.15915,8.17739 -0.90768,16.35392 -1.47898,24.5587 -0.23344,3.35249 -0.43759,6.68133 -1.12293,9.89242 -0.96451,4.51911 -2.91342,8.84904 -5.84564,12.38323 -3.34929,4.0369 -7.90346,6.97689 -12.59975,9.56634 -5.21737,2.87679 -10.74121,5.3802 -16.54679,5.78311 -0.58144,0.0404 -1.16335,0.0579 -1.74563,0.0568 -0.582279,0.001 -1.175042,-0.0164 -1.756481,-0.0568 -5.805585,-0.40291 -11.329419,-2.90632 -16.546794,-5.78311 -4.696285,-2.58945 -9.250451,-5.52944 -12.599748,-9.56634 -2.932217,-3.53419 -4.881129,-7.86412 -5.845638,-12.38323 -0.685339,-3.21109 -0.889489,-6.53993 -1.122929,-9.89242 -0.571299,-8.20478 -1.319829,-16.38131 -1.478979,-24.5587 -0.1503,-7.7228 0.224352,-15.45492 0.961182,-23.15415 0.682899,-7.13569 2.977596,-21.291719 2.977596,-21.291719 z"
       transform="translate(-47.049862,-72.235383)" /><path
       style="display:inline;fill:none;stroke:#ffffff;stroke-width:2.765;stroke-linecap:round;stroke-linejoin:miter;stroke-dasharray:none;stroke-opacity:1"
       d="m 101.47864,113.15704 v 12.98805"
       id="path2823"
       inkscape:label="1"
       transform="translate(-47.049862,-72.235383)"
       inkscape:original-d="m 101.47864,113.15704 c 2.6e-4,4.32962 2.6e-4,8.65897 0,12.98805"
       inkscape:path-effect="#path-effect2825" /></g></svg>
