<?xml version="1.0" encoding="UTF-8" standalone="no"?>
<!-- Created with Inkscape (http://www.inkscape.org/) -->

<svg
   width="561.72418mm"
   height="577.75726mm"
   viewBox="0 0 561.72418 577.75726"
   version="1.1"
   id="svg5"
   inkscape:version="1.1.2 (0a00cf5339, 2022-02-04)"
   sodipodi:docname="logo.svg"
   xmlns:inkscape="http://www.inkscape.org/namespaces/inkscape"
   xmlns:sodipodi="http://sodipodi.sourceforge.net/DTD/sodipodi-0.dtd"
   xmlns="http://www.w3.org/2000/svg"
   xmlns:svg="http://www.w3.org/2000/svg">
  <sodipodi:namedview
     id="namedview7"
     pagecolor="#505050"
     bordercolor="#ffffff"
     borderopacity="1"
     inkscape:pageshadow="0"
     inkscape:pageopacity="0"
     inkscape:pagecheckerboard="1"
     inkscape:document-units="mm"
     showgrid="false"
     inkscape:zoom="0.25165631"
     inkscape:cx="774.86632"
     inkscape:cy="1196.0757"
     inkscape:window-width="1680"
     inkscape:window-height="985"
     inkscape:window-x="0"
     inkscape:window-y="0"
     inkscape:window-maximized="1"
     inkscape:current-layer="layer2"
     fit-margin-top="0"
     fit-margin-left="0"
     fit-margin-right="0"
     fit-margin-bottom="0" />
  <defs
     id="defs2">
    <inkscape:path-effect
       effect="spiro"
       id="path-effect2761"
       is_visible="true"
       lpeversion="1" />
    <inkscape:path-effect
       effect="spiro"
       id="path-effect1358"
       is_visible="true"
       lpeversion="1" />
    <inkscape:path-effect
       effect="spiro"
       id="path-effect1081"
       is_visible="true"
       lpeversion="1" />
  </defs>
  <g
     inkscape:groupmode="layer"
     id="layer2"
     inkscape:label="Layer 2"
     transform="translate(129.86424,130.76502)">
    <path
       id="path1083"
       style="display:inline;fill:#000000;stroke:#000000;stroke-width:0.264583px;stroke-linecap:butt;stroke-linejoin:miter;stroke-opacity:1"
       d="m 400.81543,144.04736 30.89805,302.81261 h -561.44585 m 0,0 c 7.32596,-91.46892 14.60234,-182.94181 21.82912,-274.41862 2.65958,-33.66504 5.32058,-67.39517 11.261969,-100.638332 3.286259,-18.387235 7.597041,-36.674576 14.54482,-54.012923 8.690247,-21.6867179 21.408409,-41.609233 36.132574,-59.748503 16.376816,-20.175234 35.396821,-38.348176 57.167477,-52.535449 56.838665,-37.040023 130.08538,-44.377363 195.82596,-27.621063 67.85366,17.2949 129.91497,60.444032 164.65986,121.23897805 C 396.56327,42.64715 406.94297,94.293749 400.81543,144.04736" />
    <path
       id="path44"
       style="display:inline;opacity:1;fill:#ffffff;stroke:none;stroke-width:11.8418;stroke-linecap:round;stroke-linejoin:round;paint-order:markers fill stroke"
       d="m 1086,223.92969 c -16.9061,0.0101 -35.2135,14.55821 -36.2051,36.61328 -0.3643,8.10274 4.8409,15.88814 4.8418,24.45703 -0.01,4.45329 -2.5721,8.96475 -1.3574,13.17773 4.7173,16.36075 19.158,25.37673 32.7207,25.38477 20.7464,-7.4e-4 37.5644,-22.30406 37.5645,-49.81641 -10e-5,-27.51235 -16.8181,-49.81566 -37.5645,-49.8164 z"
       transform="scale(0.26458333)"
       sodipodi:nodetypes="cscscsc" />
    <path
       id="path206"
       style="display:inline;opacity:1;fill:#ffffff;stroke:none;stroke-width:9.78918;stroke-linecap:round;stroke-linejoin:round;paint-order:markers fill stroke"
       d="m 978.98438,-318.32031 a 592.59466,442.62439 74.605333 0 0 -93.60743,15.3789 592.59466,442.62439 74.605333 0 0 -253.0332,701.22461 592.59466,442.62439 74.605333 0 0 591.34375,434.44141 592.59466,442.62439 74.605333 0 0 253.0332,-701.22656 592.59466,442.62439 74.605333 0 0 -497.73632,-449.81836 z m 77.02732,264.085935 A 308.25759,228.7423 74.989326 0 1 1313.1016,179.875 308.25759,228.7423 74.989326 0 1 1182.4043,544.83203 308.25759,228.7423 74.989326 0 1 876.96484,318.72461 308.25759,228.7423 74.989326 0 1 1007.6621,-46.230469 a 308.25759,228.7423 74.989326 0 1 48.3496,-8.003906 z"
       transform="scale(0.26458333)" />
    <path
       id="path2759"
       style="color:#000000;fill:#ffffff;stroke-width:3.77953;stroke-linecap:round;stroke-linejoin:round;-inkscape-stroke:none"
       d="m 163.41602,-421.69141 c -11.40019,4.88842 -22.69652,10.02076 -33.86914,15.42579 30.92393,3.78386 61.25867,14.20006 89.88671,28.19531 22.61366,11.05502 43.95017,24.2244 61.21094,41.2207 25.99451,25.59622 42.95412,60.09471 55.50391,96.05273 25.06745,71.82398 33.83082,148.909106 38.09765,226.054692 6.08111,109.948289 3.41239,220.398288 -3.0332,330.650388 -3.80101,65.01644 -8.93559,130.23 -10.72656,195.8418 -1.27323,46.6444 -0.86742,94.54377 10.55664,141.20117 14.04108,57.3456 43.83255,108.89483 77.31055,155.91211 54.5074,76.55142 120.75158,144.46171 194.71289,202.21292 98.15837,76.6449 209.37969,135.1302 325.07617,179.9687 65.14652,25.2478 132.74162,46.5741 202.91212,55.2403 52.5601,6.4912 105.9551,5.7481 158.3203,-1.8907 36.8788,-5.3796 74.9178,-14.5275 107.6348,-35.6992 27.6962,-17.9227 49.7805,-43.562 64.6152,-72.6816 24.1935,-47.4905 28.4791,-101.1082 30.2051,-151.97073 4.0523,-119.41444 -4.5625,-239.24829 -25.6524,-356.85547 -1.0453,-5.81666 -15.6074,-25.22697 -19.58,-30.23828 -3.6728,-4.63298 -2.5356,28.19782 -1.4942,34.01758 20.8226,116.11687 29.3271,234.45228 25.3262,352.35351 -1.7008,50.11839 -6.2098,100.43159 -27.8809,142.97069 -13.2352,25.98 -32.9524,48.7569 -57.1718,64.4297 -28.6846,18.5622 -63.6041,27.311 -99.0958,32.4883 -50.5028,7.3671 -101.9849,8.073 -152.5976,1.8222 -67.585,-8.3468 -133.5288,-29.0349 -197.80469,-53.9453 C 861.72206,1126.844 752.38044,1069.2688 656.24219,994.20117 583.81045,937.64432 519.01988,871.19491 465.79688,796.44727 433.13556,750.57699 404.91562,701.26865 391.83789,647.85742 c -10.6416,-43.46169 -11.20179,-89.42317 -9.94336,-135.52539 1.77101,-64.88133 6.87172,-129.873 10.68945,-195.17578 6.47407,-110.73914 9.18487,-221.995646 3.04102,-333.078125 -4.31221,-77.96599 -13.14071,-157.083385 -39.26367,-231.931645 -13.1123,-37.56975 -31.19877,-75.21126 -60.69531,-104.25586 -19.59076,-19.29058 -42.97852,-33.53998 -66.82813,-45.19921 -20.79234,-10.16465 -42.70794,-18.69076 -65.42187,-24.38282 z"
       transform="scale(0.26458333)" />
    <g
       aria-label="ZEMOND"
       id="text4455"
       style="font-size:25.4px;line-height:1.25;font-family:'It wasn\'t me';-inkscape-font-specification:'It wasn\'t me';stroke-width:0.264583"
       transform="translate(97.578338,12.516896)">
      <path
         id="path16058"
         style="font-family:LCD;-inkscape-font-specification:LCD;fill:#ffffff;stroke-width:0.961221"
         d="m 169.85948,344.06889 -2.02758,2.79357 h -19.64498 l -2.02758,-2.79357 z m 0.9462,0.85607 -3.06389,32.08081 -2.20781,-1.93746 2.02758,-26.35852 z m -26.13323,-0.85607 -1.84735,2.79357 h -20.18567 l -1.66712,-2.79357 z m 2.43309,2.79357 -2.43309,26.26839 -1.93747,2.25287 -0.99125,-1.93746 1.93746,-26.4937 1.84735,-2.29793 z m 20.72636,30.99942 -2.65838,31.44997 -2.56826,-3.19904 2.29792,-25.95301 z m -23.88037,4.32548 -2.02758,25.77278 -1.66712,1.80231 -1.39677,-1.93746 1.93746,-25.5475 1.84735,-2.29792 z m 20.6813,28.70153 h -24.01554 l 2.79355,-2.92875 h 19.01418 z m -24.82657,0 h -24.28589 l 2.47815,-2.92875 h 19.50982 z m -31.58516,-65.96393 -3.0639,32.08081 -2.2078,-1.93746 2.02757,-26.35852 z m -2.97378,32.93692 -2.65838,31.44997 -2.56827,-3.19904 2.29792,-25.95301 z m -27.034383,-6.08275 -0.180232,3.60459 h -1.261602 l -15.905228,-23.74521 0.180228,-3.96502 h 0.765974 z m 21.312102,31.17965 -0.360463,4.23538 h -0.991262 l -15.995343,-24.06059 0.315415,-3.51446 h 1.081374 z m -39.470196,-54.24899 -2.207808,26.17829 -3.154011,2.11769 2.658381,-31.44998 z m -2.703438,31.26978 -2.297922,26.76403 -3.108954,3.33423 2.748495,-32.12586 z m -12.661092,-35.91068 -2.027579,2.79357 H 23.01775 l -2.027578,-2.79357 z m 0.946204,0.85607 -3.063897,32.08081 -2.207808,-1.93746 2.027579,-26.35852 z m -26.133236,-0.85607 -1.84735,2.79357 H -2.5297404 l -1.6671213,-2.79357 z m 23.159453,33.79299 -2.65838,31.44997 -2.568267,-3.19904 2.297923,-25.95301 z m -45.1924744,-29.15209 -2.2078085,26.17829 -3.154011,2.11769 2.6583799,-31.44998 z m 41.9934064,62.1791 H 15.448124 l 2.793552,-2.92875 h 19.014182 z m -44.696846,-30.90932 -2.2979206,26.76403 -3.1089554,3.33423 2.7484961,-32.12586 z m 19.870272,30.90932 H -9.6487933 l 2.4781521,-2.92875 H 12.33917 Z m -31.585173,-65.96393 -3.063895,32.08081 -2.207809,-1.93746 2.027577,-26.35852 z m -3.965042,2.74853 -0.270329,3.78478 -19.870272,23.92545 h -1.441834 l 0.270329,-3.60459 20.005444,-24.10564 z m 0.991259,30.18839 -2.65838,31.44997 -2.568264,-3.19904 2.29792,-25.95301 z m -27.034382,-6.08275 -0.180231,3.60459 h -1.261606 l -15.905227,-23.74521 0.180232,-3.96502 h 0.765974 z m -18.158091,-23.06934 -2.207809,26.17829 -3.154011,2.11769 2.65838,-31.44998 z m -2.70344,31.26978 -2.29792,26.76403 -3.108955,3.33423 2.748495,-32.12586 z m -12.661096,-35.91068 -2.027581,2.79357 h -19.644986 l -2.02758,-2.79357 z m -25.187037,0 -1.84735,2.79357 h -20.18567 l -1.66712,-2.79357 z m -22.03302,4.6409 -2.2078,26.17829 -3.15402,2.11769 2.65838,-31.44998 z m 18.56361,28.88172 -1.39678,1.57704 h -19.64498 l -1.84735,-1.4869 2.1177,-1.66714 h 19.55486 z m 23.429799,33.29738 h -24.015539 l 2.79355,-2.92875 h 19.014181 z m -44.696849,-30.90932 -2.29792,26.76403 -3.10895,3.33423 2.74849,-32.12586 z m 19.87027,30.90932 h -24.28588 l 2.47815,-2.92875 h 19.50981 z m -32.53137,-66.82 -2.02757,2.79357 h -19.64499 l -2.02758,-2.79357 z m -3.01884,3.6046 -0.27032,3.78478 -19.87027,23.92545 h -1.44184 l 0.27033,-3.60459 20.00544,-24.10564 z m -22.16819,-3.6046 -1.84735,2.79357 h -20.18567 l -1.66712,-2.79357 z m 19.96039,66.82 h -24.01555 l 2.79356,-2.92875 h 19.01418 z m -24.37601,-31.26978 -0.27032,3.87492 -20.0505,23.70013 h -1.35172 v -3.42432 l 20.45601,-24.15073 z m -0.45057,31.26978 h -24.28588 l 2.47815,-2.92875 h 19.50981 z" />
    </g>
  </g>
</svg>
